<svg width="165" height="18" viewBox="0 0 165 18" fill="none" xmlns="http://www.w3.org/2000/svg">
<path d="M14.7776 0.00145197H0.101562V17.9106H4.46575V11.3099H13.7661V7.67491H4.46575V3.83383H14.7776V0.00145197ZM38.7727 17.9106L30.9275 0.00145197H26.0274L18.1476 17.9106H22.7769L24.0707 14.6095H32.6219L33.9229 17.9106H38.7727ZM28.3326 3.8077L31.3281 11.3345H25.3631L28.3326 3.8077ZM44.023 14.0695C44.023 16.7275 45.2145 17.9106 47.8353 17.9106H57.7308C60.3516 17.9106 61.5431 16.7275 61.5431 14.0695V11.1545C61.5431 8.56623 60.4034 7.54572 57.7308 7.31345L50.0643 6.59343C48.975 6.49907 48.6436 6.216 48.6436 5.1621V4.83692C48.6436 3.78157 49.0269 3.39688 50.0643 3.39688H55.5523C56.5911 3.39688 56.9729 3.78302 56.9729 4.83692V5.21435H61.1844V3.83383C61.1844 1.17584 59.9928 0.00145197 57.3806 0.00145197H48.0803C45.4681 0.00145197 44.2765 1.17584 44.2765 3.83383V6.29439C44.2765 8.87543 45.4162 9.8945 48.0803 10.1268L55.7554 10.8468C56.8447 10.9499 57.176 11.2329 57.176 12.2781V13.0664C57.176 14.1203 56.7928 14.5064 55.7554 14.5064H49.6551C48.6177 14.5064 48.2344 14.1203 48.2344 13.0664V12.3812H44.023V14.0695ZM67.583 0.00145197V3.88464H73.7265V17.9091H78.0922V3.88464H84.2358V0.00145197H67.583ZM113.284 8.59091C114.423 8.13654 114.985 7.05651 114.985 5.36678V3.83238C114.985 1.17439 113.794 0 111.173 0H98.4781V17.9106H111.684C114.297 17.9106 115.488 16.7275 115.488 14.0695V11.995C115.487 10.0745 114.755 8.95092 113.284 8.59091ZM109.19 3.37075C110.236 3.37075 110.611 3.75689 110.611 4.81079V5.77905C110.611 6.8765 110.288 7.21038 109.19 7.21038H102.842V3.3693H109.19V3.37075ZM111.123 13.0925C111.123 14.1464 110.739 14.5325 109.702 14.5325H102.844V10.1514H109.702C110.791 10.1514 111.123 10.5376 111.123 11.5828V13.0925ZM135.695 17.9106C139.048 17.9106 140.622 16.3413 140.622 12.9473V4.95741C140.622 1.56198 139.048 0.00290283 135.695 0.00290283H127.519C124.175 0.00290283 122.601 1.56344 122.601 4.95741V12.9459C122.601 16.3399 124.176 17.9091 127.519 17.9091H135.695V17.9106ZM129.05 14.1725C127.519 14.1725 126.966 13.6064 126.966 12.072V5.83131C126.966 4.29691 127.519 3.73076 129.05 3.73076H134.173C135.721 3.73076 136.257 4.29691 136.257 5.83131V12.072C136.257 13.6064 135.721 14.1725 134.173 14.1725H129.05ZM150.577 17.9106L155.224 11.455L159.793 17.9106H165L158.192 8.79704L164.743 0.00145197H159.791L155.478 6.11438L151.155 0.00145197H145.948L152.499 8.79704L145.702 17.9106H150.577Z" fill="#312E43"/>
</svg>
