<svg width="70" height="70" viewBox="0 0 70 70" fill="none" xmlns="http://www.w3.org/2000/svg">
<path d="M44.5937 46.0938L37.3437 66.0313C37.1661 66.5097 36.8464 66.9224 36.4274 67.2137C36.0084 67.5051 35.5103 67.6613 35 67.6613C34.4896 67.6613 33.9915 67.5051 33.5725 67.2137C33.1536 66.9224 32.8338 66.5097 32.6562 66.0313L25.4062 46.0938C25.2796 45.7501 25.0799 45.438 24.8209 45.1791C24.562 44.9201 24.2499 44.7204 23.9062 44.5938L3.96872 37.3438C3.49028 37.1662 3.07765 36.8464 2.78626 36.4275C2.49487 36.0085 2.33868 35.5104 2.33868 35C2.33868 34.4897 2.49487 33.9916 2.78626 33.5726C3.07765 33.1536 3.49028 32.8339 3.96872 32.6563L23.9062 25.4063C24.2499 25.2797 24.562 25.08 24.8209 24.821C25.0799 24.562 25.2796 24.2499 25.4062 23.9063L32.6562 3.96878C32.8338 3.49034 33.1536 3.07771 33.5725 2.78632C33.9915 2.49493 34.4896 2.33875 35 2.33875C35.5103 2.33875 36.0084 2.49493 36.4274 2.78632C36.8464 3.07771 37.1661 3.49034 37.3437 3.96878L44.5937 23.9063C44.7203 24.2499 44.92 24.562 45.179 24.821C45.438 25.08 45.7501 25.2797 46.0937 25.4063L66.0312 32.6563C66.5097 32.8339 66.9223 33.1536 67.2137 33.5726C67.5051 33.9916 67.6613 34.4897 67.6613 35C67.6613 35.5104 67.5051 36.0085 67.2137 36.4275C66.9223 36.8464 66.5097 37.1662 66.0312 37.3438L46.0937 44.5938C45.7501 44.7204 45.438 44.9201 45.179 45.1791C44.92 45.438 44.7203 45.7501 44.5937 46.0938V46.0938Z" stroke="#6FCF97" stroke-width="3.5" stroke-linecap="round" stroke-linejoin="round"/>
</svg>
