<svg width="77" height="69" viewBox="0 0 77 69" fill="none" xmlns="http://www.w3.org/2000/svg">
<path d="M29.5984 47.1063C35.6065 54.8204 43.8508 61.6925 49.9742 68.0014C60.093 56.8759 76.7746 43.3741 76.7746 27.7513C76.7746 12.4276 64.4456 0 49.2322 0C42.3394 0 36.0301 2.55782 31.1977 6.77779H23.8986C21.8483 6.77779 20.1727 8.46752 20.1727 10.5274C20.1727 12.5931 21.8498 14.2771 23.8986 14.2771H35.5187C38.9982 10.6827 43.8566 8.45155 49.2322 8.45155C50.029 8.45155 50.8099 8.50091 51.5793 8.59526C61.0497 9.75804 68.3877 17.8931 68.3877 27.7513C68.3877 37.8476 60.6923 46.1322 50.8862 46.9785C50.3416 47.0235 49.7927 47.0511 49.2322 47.0511C43.0929 47.0511 37.6237 44.1376 34.1225 39.6085H13.0104C10.9602 39.6085 9.28453 41.2982 9.28453 43.3581C9.28453 45.4238 10.9616 47.1077 13.0104 47.1077H29.5984V47.1063ZM10.4487 17.4228C8.39843 17.4228 6.72278 19.1125 6.72278 21.1782C6.72278 23.2381 8.39988 24.9279 10.4487 24.9279H30.2857C30.6819 22.2031 31.6429 19.6554 33.0506 17.4242H10.4487V17.4228ZM31.9786 36.1405L30.0984 28.6368H3.72159C1.67709 28.6368 0 30.3266 0 32.3865C0 34.4522 1.67709 36.1419 3.72159 36.1419H31.9786V36.1405Z" fill="#3CBD96"/>
<path d="M50.4411 24.7654L56.295 21.3598L61.7139 18.2083L56.295 15.0523L49.4296 11.0588L42.5642 15.0523L37.1453 18.2083L42.5642 21.3598L48.4239 24.7654L49.4296 25.3519L50.4411 24.7654ZM56.295 23.7521L50.4411 27.1577V42.4088L56.295 39.0032L63.1547 35.0155V27.03V19.7644L56.295 23.7521ZM48.4239 27.1577L42.5642 23.7521L35.7045 19.7644V27.03V35.0155L42.5642 39.0032L48.4239 42.4088V27.1577Z" fill="#3CBD96"/>
</svg>
